<?xml version="1.0" standalone="no"?>
<!DOCTYPE svg PUBLIC "-//W3C//DTD SVG 20010904//EN"
 "http://www.w3.org/TR/2001/REC-SVG-20010904/DTD/svg10.dtd">
<svg version="1.0" xmlns="http://www.w3.org/2000/svg"
 width="288.000000pt" height="288.000000pt" viewBox="0 0 288.000000 288.000000"
 preserveAspectRatio="xMidYMid meet">
<metadata>
Created by potrace 1.14, written by Peter Selinger 2001-2017
</metadata>
<g transform="translate(0.000000,288.000000) scale(0.100000,-0.100000)"
fill="#000000" stroke="none">
<path d="M0 1440 l0 -1440 1440 0 1440 0 0 1440 0 1440 -1440 0 -1440 0 0
-1440z m1756 355 c36 -28 42 -43 22 -63 -18 -18 -24 -15 -38 18 -7 17 -19 30
-26 30 -29 0 -100 -80 -138 -154 -21 -42 -43 -79 -47 -82 -4 -2 -6 -11 -2 -19
3 -8 1 -15 -5 -15 -5 0 -9 -6 -9 -12 1 -7 -4 -44 -11 -82 -7 -37 -10 -71 -7
-74 12 -12 75 64 165 203 87 133 97 145 122 142 22 -3 30 2 43 29 41 87 144
122 173 59 17 -38 15 -65 -13 -152 -13 -42 -23 -79 -21 -80 2 -2 26 27 54 65
51 69 124 142 141 142 15 0 40 -29 46 -53 4 -15 -13 -62 -50 -139 -30 -64 -55
-120 -55 -124 0 -4 25 29 56 74 93 135 163 181 198 130 26 -37 19 -77 -39
-212 -31 -71 -63 -156 -72 -188 -15 -55 -15 -60 0 -75 14 -15 23 -16 59 -6 54
14 61 8 25 -23 -51 -44 -103 -29 -132 36 -17 37 -18 49 -7 111 7 42 33 115 63
182 75 164 77 193 8 120 -59 -63 -103 -124 -159 -216 -50 -85 -53 -87 -71 -71
-37 34 -22 93 73 281 34 68 59 126 55 130 -23 23 -237 -272 -287 -397 -28 -68
-54 -88 -73 -55 -8 16 -11 14 -23 -13 -24 -59 -93 -51 -120 14 -11 27 -12 51
-4 121 5 48 8 88 7 89 -2 2 -26 -32 -55 -75 -65 -97 -84 -115 -114 -107 -29 7
-68 64 -68 99 0 100 92 305 177 395 48 52 54 55 88 49 20 -3 52 -18 71 -32z
m-572 -1 c21 -8 21 -38 0 -55 -21 -17 -73 -122 -118 -239 -74 -191 -89 -226
-118 -271 -33 -54 -51 -62 -101 -42 -52 21 -78 80 -85 194 -6 110 11 120 28
17 21 -122 48 -182 76 -171 21 8 48 65 119 253 34 91 72 185 84 208 13 25 17
42 10 42 -27 0 -149 -43 -161 -57 -10 -12 -9 -21 5 -45 10 -17 15 -33 12 -36
-10 -10 -54 17 -71 44 -17 26 -17 27 4 45 13 10 73 34 135 54 62 20 121 42
131 50 22 17 27 18 50 9z m330 0 c21 -8 20 -20 -6 -57 -37 -52 -107 -207 -149
-332 -29 -84 -76 -175 -106 -207 -33 -34 -65 -30 -109 17 -36 37 -54 102 -54
197 0 78 16 67 30 -19 11 -66 34 -139 51 -159 28 -34 58 18 153 271 29 77 63
159 75 182 11 23 21 44 21 47 0 8 -155 -46 -169 -59 -13 -12 -13 -18 -1 -42 8
-15 16 -31 18 -35 9 -18 -29 -6 -57 18 -58 48 -38 67 123 119 58 19 116 41
128 49 25 18 30 19 52 10z m-1174 -160 c-11 -25 -20 -52 -20 -59 0 -8 -8 -19
-17 -24 -10 -6 -13 -11 -8 -11 6 0 10 -32 11 -73 0 -79 31 -176 66 -210 10
-10 18 -23 18 -30 0 -16 116 -94 153 -103 15 -3 27 -10 27 -15 0 -5 12 -9 28
-9 24 -1 23 -3 -18 -23 -65 -31 -214 -31 -284 1 -125 57 -186 146 -186 274 0
121 61 226 174 302 21 14 47 26 57 26 18 0 17 -2 -1 -46z m2270 -351 c0 -15
-81 -218 -91 -228 -19 -19 -8 22 32 127 23 60 46 108 50 108 5 0 9 -3 9 -7z
m-100 -40 c0 -5 -17 -23 -37 -41 l-38 -32 39 -35 c22 -19 37 -38 34 -41 -6 -6
-108 66 -108 76 1 7 93 79 103 80 4 0 7 -3 7 -7z m156 -29 c24 -20 44 -40 44
-45 0 -13 -90 -82 -98 -75 -3 4 11 23 33 42 l40 34 -37 31 c-34 28 -48 49 -32
49 3 0 26 -16 50 -36z"/>
<path d="M1899 1738 c-16 -18 -37 -54 -47 -80 -16 -47 -35 -61 -45 -35 -8 17
-22 -5 -48 -73 -39 -103 -64 -300 -38 -300 21 0 76 65 89 106 7 21 38 100 70
174 65 154 80 195 80 221 0 29 -28 23 -61 -13z"/>
<path d="M241 1354 c0 -11 3 -14 6 -6 3 7 2 16 -1 19 -3 4 -6 -2 -5 -13z"/>
</g>
</svg>
